<svg xmlns="http://www.w3.org/2000/svg" width="281.58" height="217.123" viewBox="0 0 281.58 217.123">
  <g id="Group_566" data-name="Group 566" transform="translate(-22 -443.51)">
    <g id="Group_541" data-name="Group 541" transform="translate(45.077 549.75)">
      <g id="Group_407" data-name="Group 407" transform="translate(0 0)">
        <path id="Path_3899" data-name="Path 3899" d="M44.356,319.272l-8.425.263H30.8l-1.317,19.883-5.53,13.563,1.846,2.37,10.139-11.325,2.238-2.37,1.448-3.554,1.039-7.719L51.8,355.943l1.441.045,1.173-1.186c-3.867-28.288-10.056-35.53-10.056-35.53" transform="translate(-21.185 -282.444)" fill="#518bb7"/>
        <path id="Path_3900" data-name="Path 3900" d="M164.718,403.852l11.4,23.732s2.37,0,3.029-1.054l-.218-1.076a2.181,2.181,0,0,1-2.021.808l-11.588-27.12Z" transform="translate(-145.709 -353.096)" fill="#0c5e91"/>
        <path id="Path_3901" data-name="Path 3901" d="M14.413,353.487a2.151,2.151,0,0,1-1.919-2.48l4.741-11.064.132-1.054,1.253.893a1.265,1.265,0,0,0,1.257.122l.252-.115a1.265,1.265,0,0,0,.693-.8l.162-.568a1.265,1.265,0,0,0-.323-1.243l-.474-.474a1.96,1.96,0,0,1-.463-.739l-.158-.454,1.525-17.426-2.521.2L17.5,336.909s-2.9-.132-1.58,2.369l-5.663,13.041a3.8,3.8,0,0,0,3.424,1.976Z" transform="translate(-9.074 -281.392)" fill="#0c5e91"/>
        <path id="Path_3903" data-name="Path 3903" d="M164.924,399.963l.606-5.6a.156.156,0,0,1,.31.016l.026,7.133Z" transform="translate(-145.891 -348.745)" fill="#002169"/>
        <path id="Path_3904" data-name="Path 3904" d="M258.936,617.626l.69,3.12a29.285,29.285,0,0,1,4.335.016.163.163,0,0,1,.038.315l-6.288,2.306-2.384-4.434a6.237,6.237,0,0,0,3.608-1.323" transform="translate(-225.862 -546.366)" fill="#022169"/>
        <path id="Path_3905" data-name="Path 3905" d="M5.883,600.616l-2.049,2.453s1.078,1.5,2.059,3.1a.163.163,0,0,1-.226.223L0,602.818l2.054-4.6a9.116,9.116,0,0,0,3.829,2.394" transform="translate(0 -529.201)" fill="#022169"/>
        <path id="Path_1872" data-name="Path 1872" d="M30.688.092l0,.009L9.917,2.19l-4.149.32A4.559,4.559,0,0,0,.925,4.82L0,10.408s1.894,3.047,9.71.734l4.118.446.135-4.339s7.8-.178,19.264-4.66c.032.034.064.07.1.1A1.887,1.887,0,0,0,36.142,2.4,2.335,2.335,0,0,0,36.57.617c1.524-.217,2.853-.427,3.1-.5C40.317-.082,31.654.02,30.688.092Z" transform="matrix(0.999, 0.035, -0.035, 0.999, 7.333, 10.099)" fill="#d56e2c"/>
        <path id="Path_1758" data-name="Path 1758" d="M-189.205-1670.918a3.242,3.242,0,0,0-1.969-2.232,7.121,7.121,0,0,0-3.02-.481,17.282,17.282,0,0,0-1.729.131,4.429,4.429,0,0,0-1.816.525,3.261,3.261,0,0,0-1.313,1.794,7.215,7.215,0,0,0-.285,2.232,3.343,3.343,0,0,0,.635,2.3c.547.591,1.006.678,1.16,1.225s-.022.679,0,1.007a2.079,2.079,0,0,0,1.072,1.313,4.328,4.328,0,0,0,1.751.24,1.546,1.546,0,0,0,.831-.175,1.532,1.532,0,0,0,.416-.437,4.112,4.112,0,0,0,.766-1.575,2.385,2.385,0,0,0-.5-1.9c-.263-.307-.591-.547-.832-.854a1.2,1.2,0,0,1-.285-1.094,1.27,1.27,0,0,1,.679-.634,7.015,7.015,0,0,1,2.144-.547l1.794-.263a.929.929,0,0,0,.416-.132.306.306,0,0,0,.109-.394" transform="translate(209.061 1673.644)" fill="#0b0909"/>
        <path id="Path_1760" data-name="Path 1760" d="M-185.937-1669.387s6.127,9.081-.241,8.949l.482,1.707h-6.061l.547-3.195s-3.195-1.357-.219-2.144c0,0-3.961-8.271,5.492-5.339" transform="translate(205.595 1671.762)" fill="#d56e2c"/>
        <path id="Path_1761" data-name="Path 1761" d="M-194.859-1649.183s.744,4.179-1.838,3.3a8.3,8.3,0,0,1-3.917-2.823s-.124-.025-.342-.049c-3.215-.36-7.264.468-7.777,5.8v9.351s-1.292,12.863,1.528,13.505,5.308,5.16,9.717,3.443l10.244-1.782-2.565-24.518s4.8,1.478,6.635,1.413l-.979-8.566Z" transform="translate(214.499 1661.362)" fill="#afc0d8"/>
        <path id="Path_1763" data-name="Path 1763" d="M-193.071-1665.29a3.392,3.392,0,0,0-.744-3.523,21.7,21.7,0,0,0,4.442-2.144,1.383,1.383,0,0,0,.547-.525.5.5,0,0,0-.2-.656s-7.134-.547-6.674,3.151,2.626,3.72,2.626,3.72" transform="translate(207.171 1672.873)" fill="#0b0909"/>
        <path id="Path_1847" data-name="Path 1847" d="M-15.1-1584.283c-.608-.832-1.735-.6-2.368-.644a4.3,4.3,0,0,0-2.786.644,5.508,5.508,0,0,0-1.048.779l-5.946-.535-15.755-1.367c-3.661-1.609-8.841,5.22,0,6.181,0,0,1.41-.586,20.114-.811l2.039-.309.083-.078a4.714,4.714,0,0,0,2.346-.684,5.626,5.626,0,0,0,.824-.578,2.665,2.665,0,0,0,2.5-1.04C-15.1-1582.728-14.264-1583.136-15.1-1584.283Z" transform="translate(57.515 1605.062)" fill="#d56e2c"/>
        <rect id="Rectangle_493" data-name="Rectangle 493" width="8.617" height="11.848" transform="translate(11.458 14.821) rotate(25)" fill="#afc0d8"/>
        <path id="Path_3898" data-name="Path 3898" d="M6.839,34.963,13.884,40,17.1,33.643l-3.216-2.289" transform="translate(1.928 -13.93)" fill="none" stroke="#738dba" stroke-width="1"/>
      </g>
      <ellipse id="Ellipse_290" data-name="Ellipse 290" cx="0.769" cy="0.401" rx="0.769" ry="0.401" transform="translate(21.136 6.403) rotate(-8.952)" fill="#fa9e9f"/>
      <ellipse id="Ellipse_291" data-name="Ellipse 291" cx="0.769" cy="0.401" rx="0.769" ry="0.401" transform="translate(16.361 6.817) rotate(-8.952)" fill="#fa9e9f"/>
      <path id="Path_714" data-name="Path 714" d="M-177.638-1659.409l.014-.005a.618.618,0,0,0,.3-.451c.039-.4-.387-.817-.569-1l-.052-.049a.075.075,0,0,0-.106,0h0a.078.078,0,0,0,0,.108l.053.051c.168.162.557.54.524.87a.468.468,0,0,1-.24.341.076.076,0,0,0-.025.1v0a.078.078,0,0,0,.1.025Z" transform="translate(197.964 1667.011)" fill="#1f161e"/>
      <path id="Path_715" data-name="Path 715" d="M-179.758-1655.064a.156.156,0,0,0,.106-.193.155.155,0,0,0-.181-.108,2.654,2.654,0,0,1-1.615-.812.154.154,0,0,0-.218,0h0a.16.16,0,0,0,0,.224c-.044.891-.044,2.2,1.875.9Z" transform="translate(199.864 1664.553)" fill="#1f161e"/>
      <path id="Path_715-2" data-name="Path 715" d="M-183.523-1662.229a.076.076,0,0,0,.022.105.075.075,0,0,0,.1-.017,1.3,1.3,0,0,1,.859-.21.075.075,0,0,0,.081-.069h0a.078.078,0,0,0-.07-.084,1.426,1.426,0,0,0-.983.26Z" transform="translate(200.815 1667.836)" fill="#1f161e"/>
      <path id="Path_715-3" data-name="Path 715" d="M-178.513-1663.043a.076.076,0,0,0-.013.106.076.076,0,0,0,.1.016,1.3,1.3,0,0,1,.881.075.075.075,0,0,0,.1-.04h0a.077.077,0,0,0-.04-.1,1.428,1.428,0,0,0-1.014-.066Z" transform="translate(198.21 1668.151)" fill="#1f161e"/>
    </g>
    <g id="Group_438" data-name="Group 438" transform="translate(141.947 457.816) rotate(-4)">
      <path id="Path_2340" data-name="Path 2340" d="M23.026,24.278H14.692l-1.037-.665L11.718,22.36,1.311,15.67.02,14.829H0l.137-.2a6.6,6.6,0,0,1,.743-.861l.176-.157.117-.1L1.33,13.4a6.71,6.71,0,0,1,2.406-1.232,26.7,26.7,0,0,0,3.5-.274h.02a9.02,9.02,0,0,1,1.369.235h.02l.078-.469.489-2.954S5.36,7.082,8.96,6.1c0,0-.1-.2-.215-.509,1.546-.959.743-2.915.743-2.915C13.029,2.5,12.853.333,12.853.333c1.682.841,2.582.137,2.974-.333.665,1.056,2.641,4.343,2.954,6.964.235,1.976-.489,3.58-3.463,3.521l.293,1.037.059.215C26.273,19.093,23.612,18.976,23.026,24.278Z" transform="translate(10.498 11.071)" fill="#d56e2c"/>
      <path id="Path_2341" data-name="Path 2341" d="M30.041,16.314l-.783,1.722c-.313-2.621-2.289-5.908-2.954-6.964-.391.47-1.291,1.174-2.974.333,0,0,.176,2.191-3.365,2.348,0,0,.822,1.976-.743,2.915.117.313.215.509.215.509-3.6.959.254,2.6.254,2.6L19.2,22.73l-1.487.235a26.7,26.7,0,0,1-3.5.274,15.141,15.141,0,0,1-3.228-.293v-.078C9.813,24.96,6.84,25.547,4.649,24.55A8.764,8.764,0,0,1,.286,19.092a4.062,4.062,0,0,1-.235-2.035,2,2,0,0,1,.822-1.311,5.9,5.9,0,0,1,.978-3.854A12.069,12.069,0,0,1,4.883,8.86a5.947,5.947,0,0,1,1.624-.919,5.458,5.458,0,0,1,5.83-6.182h.1a3.228,3.228,0,0,1,1.1-.978,6.182,6.182,0,0,1,7.258.919l.235.254.215-.1a1.957,1.957,0,0,1,1.448.391,7.453,7.453,0,0,1,3.365,5.4s3.13-1.624,3.854.743-.039,3.521-.039,3.521,1.937,1.526.176,4.4" transform="translate(0 0)" fill="#002169"/>
      <path id="Path_2344" data-name="Path 2344" d="M10.525,1.6a1.72,1.72,0,0,1-.215.352c-.391.47-1.291,1.174-2.974.333,0,0,.176,2.191-3.365,2.348,0,0,.822,1.976-.743,2.934a3.4,3.4,0,0,1-1.272.43S-2.837,2.086,2.582.5s7.943,1.1,7.943,1.1" transform="translate(16.015 9.122)" fill="#002169"/>
      <path id="Path_2350" data-name="Path 2350" d="M.766.115c.509-.2,1-.137,1.115.137s-.235.646-.743.841S.14,1.23.023.956.257.311.766.135" transform="translate(26.497 14.32)" fill="#f97e8f"/>
      <path id="Path_2351" data-name="Path 2351" d="M.766.115c.509-.2,1-.137,1.115.137s-.235.646-.743.841S.14,1.23.023.956.257.311.766.135" transform="translate(21.978 16.414)" fill="#f97e8f"/>
      <path id="Path_2352" data-name="Path 2352" d="M.92,1.819h.02a.8.8,0,0,0,.274-.646C1.154.646.509.254.235.059L.157.02A.1.1,0,1,0,.039.176L.117.235c.254.157.841.528.88.959a.606.606,0,0,1-.215.489.1.1,0,0,0,0,.137h0a.1.1,0,0,0,.137,0Z" transform="translate(25.17 15.042)" fill="#0a0948"/>
      <path id="Path_2353" data-name="Path 2353" d="M1.236.25A.062.062,0,1,0,1.275.132.8.8,0,0,0,.081.524,1.154,1.154,0,0,0,0,.817.062.062,0,0,0,.121.856L.277.621A1,1,0,0,1,.571.347.958.958,0,0,1,.942.23h.274" transform="translate(22.643 14.303)" fill="#0a0948"/>
      <path id="Path_2354" data-name="Path 2354" d="M1.344.4A.063.063,0,1,0,1.422.3.8.8,0,0,0,.17.3,1.156,1.156,0,0,0,.014.555a.063.063,0,0,0,.1.078L.346.477A1,1,0,0,1,.7.32a.978.978,0,0,1,.391,0L1.344.4" transform="translate(25.782 13.157)" fill="#0a0948"/>
      <path id="Path_2355" data-name="Path 2355" d="M.153.035a.084.084,0,1,0-.137.1A1.037,1.037,0,0,0,.66.774a1.037,1.037,0,0,0,.9-.112A1.505,1.505,0,0,0,1.874.407a.084.084,0,1,0-.1-.137l-.352.1A1.311,1.311,0,0,1,.916.407,1.272,1.272,0,0,1,.426.231L.153.035" transform="translate(24.352 17.98)" fill="#0a0948"/>
      <path id="Path_2356" data-name="Path 2356" d="M0,18.249,1.973,5.863s2.661-6.73,9.664-4.7c0,0,3.873,4.48,6.162,3.365,0,0,1.174-.2.841-3.776,0,0,.378-1.951,4.085.411s5.18,7.272,5.18,7.272,1.828,12.768-1.829,10.239" transform="translate(7.488 22.051)" fill="#ffd261"/>
    </g>
    <g id="Group_539" data-name="Group 539" transform="translate(84.511 457.595)">
      <path id="Fill-7" d="M771.693,46.329h-95.2V74.7h30.424v54.484a32.718,32.718,0,0,1-2.037,11.694,27.9,27.9,0,0,1-5.717,9.3,26.218,26.218,0,0,1-8.725,6.137,27.267,27.267,0,0,1-11.05,2.2,27.943,27.943,0,0,1-11.147-2.2,25.877,25.877,0,0,1-8.82-6.137,27.842,27.842,0,0,1-5.719-9.3,32.719,32.719,0,0,1-2.035-11.694V46.94H621.425v83.395a64.769,64.769,0,0,0,3.684,22.238,48.819,48.819,0,0,0,10.953,17.639,50.188,50.188,0,0,0,18.125,11.694q10.855,4.215,25.2,4.218a68.786,68.786,0,0,0,25.007-4.218,50.206,50.206,0,0,0,18.126-11.694,48.849,48.849,0,0,0,10.953-17.639,64.821,64.821,0,0,0,3.684-22.238V74.7h34.535Z" transform="translate(-621.425 -9.416)" fill="#ff5c39" fill-rule="evenodd"/>
      <path id="Fill-9" d="M646.944,33.555h0a14.935,14.935,0,1,0,0,21.1,14.968,14.968,0,0,0,0-21.1" transform="translate(-621.425 -29.186)" fill="#ff5c39" fill-rule="evenodd"/>
    </g>
    <g id="Group_538" data-name="Group 538" transform="translate(185.247 510.238)">
      <path id="Path_1881" data-name="Path 1881" d="M82.13,11.587A6.367,6.367,0,0,1,83,9.5a7.351,7.351,0,0,1,3.022-2.647A6.8,6.8,0,0,1,88.4,6.192a5.724,5.724,0,0,1-.209-.847A6.991,6.991,0,0,1,88.024,2.6,3.023,3.023,0,0,1,89.507.458a4.632,4.632,0,0,1,2.7-.423A11.321,11.321,0,0,1,95.032.7,7.632,7.632,0,0,1,97.6,2.229,4.8,4.8,0,0,1,99,7.286c-.636,1.6-2.182,2.4-3.709,2.99a6.176,6.176,0,0,1,1.589,2.688,8.682,8.682,0,0,1-1.205,6.95,8.37,8.37,0,0,1-4.994,3.867l-.021,0h0a.35.35,0,0,1-.1.013.37.37,0,0,1-.356-.273.364.364,0,0,1,.007-.222,13.781,13.781,0,0,1-2.781-4.2c-.423-.873-.832-1.754-1.325-2.592a18.535,18.535,0,0,0-1.7-2.356,11.26,11.26,0,0,0-1.975-2.1c-.013,0-.028-.006-.042-.009a.369.369,0,0,1-.258-.456M89.592,6.5l0,0,.009,0-.011,0" transform="translate(-53.044 0)" fill="#002169"/>
      <path id="Path_1882" data-name="Path 1882" d="M115.6,76.811a50.609,50.609,0,0,0-5.017-1l-.7-9.086s1.931,1.1,1.3-2.88c0,0-.162-.818-1.044.1l-.14.179s-4.333-2.387-4.762-5.55a7.509,7.509,0,0,1-3.234,1.186s-3.986,14.78,2,12.353l.694-.191s.3,4.72-4.9,7.36c0,0,9.7,8.363,15.786-2.47" transform="translate(-72.665 -47.714)" fill="#deab8c"/>
      <path id="Path_1964" data-name="Path 1964" d="M22.844,1.481C14.037,12.99,8.819,17.4,5.71,17.768l-.146.163L3.083,20.7s-3.435.38-3.053-1.528l.382-.764-.1-1.146A1.915,1.915,0,0,1,1.937,16.5H3.083l1.405-.3c.092-.046.183-.092.44-.225C14.709,6.757,18.613,0,18.613,0" transform="matrix(0.848, -0.53, 0.53, 0.848, 3.269, 52.407)" fill="#deab8c"/>
      <path id="Path_1965" data-name="Path 1965" d="M54.539,159.7c2.148.165,4.627-3.351,5.747-5.191a13.881,13.881,0,0,1,8.153,2.819c3.38,2.914,4.674,7.509,5.8,11.827L67.09,170.35a.562.562,0,0,0-.57.642c-.356,3.435-.873,9.747-1.229,13.182l-3.075-.146-18.245-.561a13.507,13.507,0,0,0-.463-13.77,11.451,11.451,0,0,1-6.786-2.255,12.91,12.91,0,0,1,7.407-9.878,22.677,22.677,0,0,1,4.514-1.331s3.485,3.285,5.895,3.471" transform="translate(-19.609 -125.867)" fill="#fff"/>
      <path id="Path_1968" data-name="Path 1968" d="M40.1,319.272l13.534.423h8.25L64,351.636l8.884,21.787-2.966,3.808L53.632,359.038l-3.595-3.808-2.327-5.71-1.669-12.4L28.148,378.182l-2.316.072-1.884-1.906C30.161,330.905,40.1,319.272,40.1,319.272" transform="translate(-15.888 -260.082)" fill="#518bb7"/>
      <path id="Path_1969" data-name="Path 1969" d="M187.9,406.708l-18.319,38.124s-3.808,0-4.867-1.693l.351-1.728a3.5,3.5,0,0,0,3.246,1.3l18.615-43.567Z" transform="translate(-157.002 -325.145)" fill="#0c5e91"/>
      <path id="Path_1970" data-name="Path 1970" d="M20.985,374.957a3.456,3.456,0,0,0,3.083-3.984L16.452,353.2l-.211-1.693-2.013,1.435a2.032,2.032,0,0,1-2.02.2l-.4-.184a2.032,2.032,0,0,1-1.113-1.292l-.261-.912a2.032,2.032,0,0,1,.519-2l.761-.762a3.149,3.149,0,0,0,.744-1.187l.255-.729-2.449-27.994,4.051.328,1.715,29.915s4.653-.212,2.538,3.806l9.1,20.949s-1.27,2.966-5.5,3.174Z" transform="translate(31.878 -259.114)" fill="#0c5e91"/>
      <path id="Path_1985" data-name="Path 1985" d="M95.763,313.412,71.6,312.951a.853.853,0,0,1-.836-.869l.006-.3a.853.853,0,0,1,.869-.837l24.161.461a.853.853,0,0,1,.836.869l-.006.3a.853.853,0,0,1-.869.836" transform="translate(-48.319 -253.302)" fill="#022169"/>
      <path id="Path_1986" data-name="Path 1986" d="M74.158,486.932A2.516,2.516,0,0,0,76.277,485" transform="translate(-28.587 -395.087)" fill="none" stroke="#022169" stroke-linecap="round" stroke-linejoin="round" stroke-width="4"/>
      <path id="Path_1987" data-name="Path 1987" d="M86.363,29.005c0,.011,0,.019,0,.023s0-.041,0-.023" transform="translate(-40.94 -23.623)" fill="#102455"/>
      <path id="Path_1988" data-name="Path 1988" d="M87.515,38.358v0a.015.015,0,0,0,0-.007s0,0,0,.006" transform="translate(-42.305 -31.242)" fill="#102455"/>
      <path id="Path_1989" data-name="Path 1989" d="M87.539,38.394a.026.026,0,0,0,0,.011s0,0,0,0,0,0,0-.007,0,0,0,0a0,0,0,0,0,0,0" transform="translate(-42.331 -31.274)" fill="#102455"/>
      <path id="Path_1990" data-name="Path 1990" d="M89.611,41.9a.021.021,0,0,0-.006.007l.007-.007Z" transform="translate(-44.786 -34.135)" fill="#102455"/>
      <path id="Path_1991" data-name="Path 1991" d="M93.356,45.6a.044.044,0,0,0-.011.009.006.006,0,0,1,0,0,0,0,0,0,1,0,0Z" transform="translate(-49.223 -37.148)" fill="#102455"/>
      <path id="Path_1992" data-name="Path 1992" d="M97.791,76.224c0-.007,0-.033-.006-.033v0a.285.285,0,0,0,.006.029" transform="translate(-54.481 -62.066)" fill="#102455"/>
      <path id="Path_1993" data-name="Path 1993" d="M104,60.823a.03.03,0,0,0,.006.011.036.036,0,0,0,.007.011.045.045,0,0,0-.013-.022" transform="translate(-61.851 -49.547)" fill="#102455"/>
      <path id="Path_1994" data-name="Path 1994" d="M116.088,117.8l-.013.011s0,0,.006,0Z" transform="translate(-76.169 -95.963)" fill="#102455"/>
      <path id="Path_1995" data-name="Path 1995" d="M118.921,4.28c.039,0-.08-.011,0,0" transform="translate(-79.532 -3.483)" fill="#102455"/>
      <path id="Path_1996" data-name="Path 1996" d="M124.313,122.708l-.007,0,.007,0,.009,0,0,0a0,0,0,0,0,0,0l-.009,0-.006,0" transform="translate(-85.935 -99.954)" fill="#102455"/>
      <path id="Path_1997" data-name="Path 1997" d="M134.271,6.852c-.011,0-.052.039,0,0" transform="translate(-97.72 -5.582)" fill="#102455"/>
      <path id="Path_1998" data-name="Path 1998" d="M136.3,8.91a.079.079,0,0,0,.019-.027l-.015.02Z" transform="translate(-100.144 -7.236)" fill="#102455"/>
      <path id="Path_1999" data-name="Path 1999" d="M158.363,44.632l-.007,0v0a.027.027,0,0,1,.007-.006" transform="translate(-126.283 -36.358)" fill="#102455"/>
      <path id="Path_2000" data-name="Path 2000" d="M164.738,50.948s0,0,0,0l.007-.009-.006.006" transform="translate(-133.846 -41.498)" fill="#102455"/>
      <path id="Path_2001" data-name="Path 2001" d="M168.955,58.159v0s0-.011.007-.021a.066.066,0,0,0-.007.017" transform="translate(-138.847 -47.363)" fill="#102455"/>
      <path id="Path_2002" data-name="Path 2002" d="M52.01,241.436c-.859,3.752-1.354,8.591-6.956,13.517l1.27,1.27s8.625-2.707,10.415-14.811a26.01,26.01,0,0,0,.215-5.25" transform="translate(-3.915 -192.38)" fill="#fff"/>
      <path id="Path_2003" data-name="Path 2003" d="M45.155,254.991s12.213-3.9,11.28-20.829l-5.26.825s2.763,9.5-7.136,18.214l1.116,1.79" transform="translate(-3.212 -190.751)" fill="#deab8c"/>
      <path id="Path_2004" data-name="Path 2004" d="M94.718,328.712a7.843,7.843,0,0,0,3.878,4.44" transform="translate(-54.718 -267.772)" fill="none" stroke="#022169" stroke-linecap="round" stroke-linejoin="round" stroke-width="4"/>
      <path id="Path_2005" data-name="Path 2005" d="M166.438,403.445l-.974-9a.25.25,0,0,0-.5.026l-.042,11.459Z" transform="translate(-135.575 -321.138)" fill="#002169"/>
      <path id="Path_2006" data-name="Path 2006" d="M76.477,222.494l-1.189-4.971a.109.109,0,0,1,.207-.064l1.581,4.112a2,2,0,0,0-.6.924" transform="translate(-29.594 -177.087)" fill="#13180f"/>
      <path id="Path_2040" data-name="Path 2040" d="M143.6,125.205l2.456-1.195a.241.241,0,0,1,.259.4l-2.887,2.391Z" transform="translate(-111.558 -100.999)" fill="#3f2018"/>
      <path id="Path_2041" data-name="Path 2041" d="M170.961,88.932c-.673-.106-1.263.093-1.318.444s.445.721,1.118.827,1.263-.093,1.318-.444-.445-.722-1.118-.828" transform="translate(-142.095 -72.422)" fill="#f0808b"/>
      <path id="Path_2042" data-name="Path 2042" d="M138.3,96.517c-.673-.106-1.263.093-1.319.444s.445.722,1.118.827,1.263-.092,1.319-.443-.445-.722-1.118-.828" transform="translate(-103.374 -78.6)" fill="#f0808b"/>
      <path id="Path_2043" data-name="Path 2043" d="M161.377,92.728l-.023-.009a.993.993,0,0,1-.486-.725c-.063-.647.622-1.311.913-1.6l.083-.078a.121.121,0,0,1,.171,0,.124.124,0,0,1,0,.172l-.084.082c-.269.259-.895.867-.841,1.4a.751.751,0,0,0,.385.549.12.12,0,0,1,.041.165l0,0a.123.123,0,0,1-.159.039Z" transform="translate(-130.456 -73.545)" fill="#171016"/>
      <path id="Path_2044" data-name="Path 2044" d="M144.416,83.38a.083.083,0,0,1-.081-.138.993.993,0,0,1,1.554.187,1.445,1.445,0,0,1,.16.349.083.083,0,0,1-.137.085c-.09-.083-.172-.164-.257-.235a1.251,1.251,0,0,0-.423-.256,1.216,1.216,0,0,0-.489-.049,2,2,0,0,0-.327.058" transform="translate(-111.368 -67.574)" fill="#171016"/>
      <path id="Path_2045" data-name="Path 2045" d="M167.02,80.17a.083.083,0,0,1-.121-.1.993.993,0,0,1,1.533-.317,1.436,1.436,0,0,1,.262.28.083.083,0,0,1-.1.124c-.111-.049-.216-.1-.318-.141a1.258,1.258,0,0,0-.483-.109,1.215,1.215,0,0,0-.479.109,1.989,1.989,0,0,0-.291.159" transform="translate(-138.211 -64.771)" fill="#171016"/>
      <path id="Path_2046" data-name="Path 2046" d="M153.6,108.737a.108.108,0,0,1,.194.077,1.294,1.294,0,0,1-1.752,1.047,1.877,1.877,0,0,1-.443-.233.109.109,0,0,1,.073-.2c.158.014.309.032.453.038a1.629,1.629,0,0,0,.641-.073,1.586,1.586,0,0,0,.543-.339,2.631,2.631,0,0,0,.291-.32" transform="translate(-120.453 -88.544)" fill="#171016"/>
      <path id="Path_2047" data-name="Path 2047" d="M263.634,617.626l-1.109,5.013a47.055,47.055,0,0,0-6.965.026.261.261,0,0,0-.061.505l10.1,3.7,3.83-7.123a10.016,10.016,0,0,1-5.8-2.125" transform="translate(-255.328 -503.124)" fill="#022169"/>
      <path id="Path_2048" data-name="Path 2048" d="M.057,602.069l3.291,3.94S1.616,608.418.04,610.982a.262.262,0,0,0,.363.358l9.1-5.734-3.3-7.384a14.646,14.646,0,0,1-6.151,3.846" transform="translate(51.931 -487.317)" fill="#022169"/>
    </g>
    <circle id="Ellipse_445" data-name="Ellipse 445" cx="10.233" cy="10.233" r="10.233" transform="translate(51.446 498.778) rotate(45)" fill="#afc0d8" opacity="0.2"/>
    <circle id="Ellipse_446" data-name="Ellipse 446" cx="7.179" cy="7.179" r="7.179" transform="translate(212.376 443.51) rotate(45)" fill="#afc0d8" opacity="0.2"/>
    <ellipse id="Ellipse_449" data-name="Ellipse 449" cx="98.292" cy="5.732" rx="98.292" ry="5.732" transform="translate(50.101 649.168)" fill="#f0f7ff"/>
    <circle id="Ellipse_447" data-name="Ellipse 447" cx="14.81" cy="14.81" r="14.81" transform="translate(282.635 522.133) rotate(45)" fill="#afc0d8" opacity="0.2"/>
    <ellipse id="Ellipse_448" data-name="Ellipse 448" cx="8.886" cy="8.886" rx="8.886" ry="8.886" transform="translate(248.382 581.953)" fill="#afc0d8" opacity="0.1"/>
    <circle id="Ellipse_450" data-name="Ellipse 450" cx="5.294" cy="5.294" r="5.294" transform="translate(29.487 590.84) rotate(45)" fill="#afc0d8" opacity="0.2"/>
  </g>
</svg>
